HIERARCHY
ROOT Hips
{
	OFFSET 0.00000 0.00000 0.00000
	CHANNELS 6 Xposition Yposition Zposition Zrotation Yrotation Xrotation 
	JOINT RightUpLegDummy
	{
		OFFSET 0 0 0
		CHANNELS 3 Zrotation Yrotation Xrotation
		JOINT RightUpLeg
		{
			OFFSET -3.52197 -3.41223 0.04002
			CHANNELS 3 Zrotation Yrotation Xrotation
			JOINT RightLeg
			{
				OFFSET 0.00006 -17.42390 1.60435
				CHANNELS 3 Zrotation Yrotation Xrotation
				JOINT RightFoot
				{
					OFFSET 0.06153 -16.50078 -1.63901
					CHANNELS 3 Zrotation Yrotation Xrotation
					JOINT RightToes
					{
						OFFSET 0.00298 -1.73825 3.34613
						CHANNELS 3 Zrotation Yrotation Xrotation
						End Site
						{
							OFFSET 0.00480 -0.05416 3.85043
						}
					}
				}
			}
		}
	}
	JOINT SpineDummy
	{
		OFFSET 0 0 0
		CHANNELS 3 Zrotation Yrotation Xrotation
		JOINT Spine
		{
			OFFSET 0.00000 4.68130 0.00000
			CHANNELS 3 Zrotation Yrotation Xrotation
			JOINT Spine1
			{
				OFFSET -0.00000 10.10138 0.05002
				CHANNELS 3 Zrotation Yrotation Xrotation
				JOINT HEadDummy
				{
					OFFSET 0 0 0
					CHANNELS 3 Zrotation Yrotation Xrotation
					JOINT Head
					{
						OFFSET -0.00000 3.43865 0.00438
						CHANNELS 3 Zrotation Yrotation Xrotation
						End Site
						{
							OFFSET -0.11417 5.02924 0.98962
						}
					}
				}
				JOINT LeftShoulder1Dummy
				{
					OFFSET 0 0 0
					CHANNELS 3 Zrotation Yrotation Xrotation
					JOINT LeftShoulder1
					{
						OFFSET 3.53937 -0.14262 -0.08662
						CHANNELS 3 Zrotation Yrotation Xrotation
						JOINT LeftArm
						{
							OFFSET 4.04833 -0.00133 0.12681
							CHANNELS 3 Zrotation Yrotation Xrotation
							JOINT LeftForeArm
							{
								OFFSET 10.33880 -0.01036 -0.55515
								CHANNELS 3 Zrotation Yrotation Xrotation
								JOINT LeftHand
								{
									OFFSET 8.69677 0.07543 0.40060
									CHANNELS 3 Zrotation Yrotation Xrotation
									End Site
									{
										OFFSET 5.28377 -0.21905 0.59205
									}
								}
							}
						}
					}
				}
				JOINT RightShoulderDummy
				{
					OFFSET 0 0 0
					CHANNELS 3 Zrotation Yrotation Xrotation
					JOINT RightShoulder
					{
						OFFSET -3.53937 -0.14262 -0.08660
						CHANNELS 3 Zrotation Yrotation Xrotation
						JOINT RightArm
						{
							OFFSET -4.04833 -0.00133 0.12683
							CHANNELS 3 Zrotation Yrotation Xrotation
							JOINT RightForeArm
							{
								OFFSET -10.37987 -0.01039 -0.55511
								CHANNELS 3 Zrotation Yrotation Xrotation
								JOINT RightHand
								{
									OFFSET -8.67398 0.07538 0.40058
									CHANNELS 3 Zrotation Yrotation Xrotation
									End Site
									{
										OFFSET -5.24810 -0.21916 0.59204
									}
								}
							}
						}
					}
				}
			}
		}
	}
	JOINT LeftUpLegDummy
	{
		OFFSET 0 0 0
		CHANNELS 3 Zrotation Yrotation Xrotation
		JOINT LeftUpLeg
		{
			OFFSET 3.52197 -3.41223 0.04002
			CHANNELS 3 Zrotation Yrotation Xrotation
			JOINT LeftLeg
			{
				OFFSET -0.00012 -17.42399 1.60337
				CHANNELS 3 Zrotation Yrotation Xrotation
				JOINT LeftFoot
				{
					OFFSET -0.09972 -16.50070 -1.63802
					CHANNELS 3 Zrotation Yrotation Xrotation
					JOINT LeftToes
					{
						OFFSET -0.01575 -1.73823 3.34611
						CHANNELS 3 Zrotation Yrotation Xrotation
						End Site
						{
							OFFSET 0.03150 -0.01868 3.85031
						}
					}
				}
			}
		}
	}
}
MOTION
Frames: 11
Frame Time: 0.033333
18.6423 38.6161 -10.9605 -172.1540 -53.5296 166.2390 0.0000 0.0000 0.0000 4.9105 2.2025 -12.4592 1.9622 8.7361 6.2775 9.6693 -1.4269 5.5850 0.0000 -0.0000 0.0000 0.0000 0.0000 0.0000 -1.1445 -1.3971 9.5394 6.6208 -2.6635 -0.9043 -0.0000 0.0000 -0.0000 -6.7686 11.9207 -4.6063 -0.0000 0.0000 -0.0000 -35.5064 -2.6562 2.5602 -43.0173 -20.7896 -12.6705 -12.7078 5.4241 41.2194 15.3672 -5.7170 -1.4295 -0.0000 0.0000 -0.0000 35.1571 5.2193 3.5924 36.9525 -0.1354 -19.6468 10.0391 -2.8663 23.8634 -11.0564 1.8098 -0.6706 0.0000 0.0000 0.0000 1.4309 9.0009 18.7503 -8.1408 -17.2851 21.1128 11.6663 0.0650 -11.3473 0.0000 0.0000 -0.0000
17.6535 38.4882 -11.6826 -169.6180 -56.0173 163.5250 0.0000 0.0000 0.0000 5.4040 1.7918 -12.2019 2.1922 6.2931 10.5173 9.6654 -1.4194 5.5701 0.0000 -0.0000 0.0000 0.0000 0.0000 0.0000 1.1586 -1.6031 9.5261 5.5948 -2.6169 -0.9004 -0.0000 0.0000 -0.0000 -7.2361 12.0439 -3.9223 -0.0000 0.0000 -0.0000 -36.0465 -2.6700 2.6001 -42.2451 -19.9042 -16.2342 -11.1208 5.2145 44.6756 16.1227 -5.0418 -1.4131 -0.0000 0.0000 -0.0000 34.9259 5.1642 3.5494 36.0304 0.1401 -19.8301 10.0424 -2.4425 22.6717 -11.2175 1.8515 -0.6844 0.0000 0.0000 0.0000 3.8205 8.4412 17.5657 -11.0223 -17.4020 28.1707 9.1752 -0.1496 -8.7278 0.0000 0.0000 -0.0000
16.7552 38.4160 -12.3145 -167.0050 -57.9085 160.8380 0.0000 0.0000 0.0000 5.9863 1.0479 -11.9059 2.7008 4.9793 14.4828 8.4801 -0.9975 2.0737 0.0000 -0.0000 0.0000 0.0000 0.0000 0.0000 3.2331 -1.4740 9.8487 4.6799 -2.2475 -1.1890 -0.0000 0.0000 -0.0000 -7.1183 12.1213 -3.4007 -0.0000 0.0000 -0.0000 -35.6957 -2.6705 2.5781 -42.2989 -19.0637 -20.0905 -8.9190 5.1630 47.4879 16.9728 -3.6818 -1.3009 -0.0000 0.0000 -0.0000 34.5474 5.1001 3.4901 35.0896 0.9158 -19.6908 10.1709 -2.3969 21.5403 -11.2664 1.7796 -0.6810 0.0000 0.0000 0.0000 6.0697 8.1871 14.4942 -13.8642 -16.0351 36.8671 3.2010 -0.1906 -2.6654 0.0000 0.0000 -0.0000
15.9609 38.3565 -12.9075 -165.4040 -59.7958 159.0720 0.0000 0.0000 0.0000 6.2299 0.2872 -11.4055 3.0933 4.1773 17.7521 5.9881 -0.5246 -1.4124 0.0000 -0.0000 0.0000 0.0000 0.0000 0.0000 3.8792 -1.0876 10.5525 4.3880 -1.7408 -1.7541 -0.0000 0.0000 -0.0000 -6.2900 12.0596 -2.9813 -0.0000 0.0000 -0.0000 -34.5121 -2.7547 2.5375 -42.9824 -18.0514 -23.1245 -6.9424 5.1332 49.1909 17.2830 -2.1313 -1.1063 -0.0000 0.0000 -0.0000 34.1288 5.0452 3.4315 34.1068 2.0530 -19.3131 10.3516 -2.4319 20.8153 -11.1712 1.6910 -0.6673 0.0000 0.0000 0.0000 7.2031 7.7678 9.9034 -14.8972 -12.6447 45.7407 -3.4032 0.4966 6.5871 0.0000 0.0000 -0.0000
15.2129 38.2978 -13.4864 -164.5650 -62.1408 157.8540 0.0000 0.0000 0.0000 6.0284 -0.2587 -10.6096 2.7912 2.6528 20.3467 3.7975 -0.2670 -3.6543 0.0000 -0.0000 0.0000 0.0000 0.0000 0.0000 3.4049 -0.6589 11.5750 4.5621 -1.2851 -2.3654 -0.0000 0.0000 -0.0000 -5.1723 11.6496 -2.8816 -0.0000 0.0000 -0.0000 -33.5393 -2.9117 2.5382 -43.0705 -17.0566 -24.7010 -5.9248 5.1031 50.4834 16.4440 -1.2054 -0.9253 -0.0000 0.0000 -0.0000 33.8139 5.0056 3.3886 32.9688 3.3170 -18.8668 10.5350 -2.2321 20.4802 -11.1509 1.6621 -0.6634 0.0000 0.0000 0.0000 7.2741 7.1671 4.8242 -12.9314 -8.2554 53.3215 -6.4365 1.3555 14.4754 0.0000 0.0000 -0.0000
14.4111 38.2791 -14.0393 -163.7320 -64.6201 156.5600 0.0000 0.0000 0.0000 5.7564 -0.6865 -9.3822 1.9011 0.8309 22.2673 2.4965 -0.1439 -5.7046 0.0000 -0.0000 0.0000 0.0000 0.0000 0.0000 3.0821 -0.2964 12.5133 4.4247 -0.8633 -2.6443 -0.0000 0.0000 -0.0000 -4.2924 11.0184 -3.3943 -0.0000 0.0000 -0.0000 -33.5199 -2.9789 2.5634 -41.7596 -16.2319 -24.8118 -6.0272 5.0582 51.9162 14.8852 -1.3278 -0.8489 -0.0000 0.0000 -0.0000 33.6283 4.9772 3.3614 31.7353 4.7340 -18.5171 10.6771 -1.8629 20.4128 -11.4722 1.7007 -0.6867 0.0000 0.0000 0.0000 6.8001 6.6363 0.0073 -9.2752 -4.6768 59.1394 -4.8576 1.0920 15.9449 0.0000 0.0000 -0.0000
13.5239 38.2957 -14.5478 -162.7390 -66.8022 155.1820 0.0000 0.0000 0.0000 5.5864 -1.1138 -7.7897 1.0044 -0.6196 23.6088 1.6618 -0.0770 -8.0913 0.0000 -0.0000 0.0000 0.0000 0.0000 0.0000 3.4465 0.0154 13.0601 3.5659 -0.3840 -2.4561 -0.0000 0.0000 -0.0000 -3.8111 10.3712 -4.3749 -0.0000 0.0000 -0.0000 -34.0544 -2.8898 2.5626 -39.6893 -15.3768 -23.7619 -7.0292 5.0222 52.7885 13.9930 -2.1509 -0.8918 -0.0000 0.0000 -0.0000 33.4799 4.9521 3.3389 30.6605 6.3316 -18.3728 10.7235 -1.4443 20.4118 -12.0707 1.7732 -0.7305 0.0000 0.0000 0.0000 6.0474 6.4447 -4.3619 -5.7266 -2.5285 62.7978 -0.8649 0.1163 11.4731 0.0000 0.0000 -0.0000
12.5888 38.3180 -15.0220 -161.9290 -68.7887 154.0140 0.0000 0.0000 0.0000 5.3510 -1.6276 -5.9423 0.2247 -1.8190 24.5104 1.2234 -0.0489 -10.2611 0.0000 -0.0000 0.0000 0.0000 0.0000 0.0000 3.9209 0.3563 13.3380 2.4245 0.1764 -2.0252 -0.0000 0.0000 -0.0000 -3.5675 9.5790 -5.2919 -0.0000 0.0000 -0.0000 -34.3193 -2.7663 2.5301 -38.1289 -14.3492 -22.2004 -8.3809 5.0309 52.0967 14.5292 -2.8966 -1.0154 -0.0000 0.0000 -0.0000 33.2788 4.9194 3.3089 29.8849 7.7995 -18.4063 10.6775 -0.7985 20.0918 -12.5987 1.8443 -0.7705 0.0000 0.0000 0.0000 5.0342 6.7045 -8.2137 -2.4924 -1.1946 63.8391 2.8804 -0.4795 5.9003 0.0000 0.0000 -0.0000
11.6284 38.3657 -15.4792 -161.5090 -70.8520 153.1960 0.0000 0.0000 0.0000 4.9118 -2.1478 -3.7741 -0.6550 -3.1435 24.8577 1.2581 -0.0376 -11.9148 0.0000 -0.0000 0.0000 0.0000 0.0000 0.0000 3.8713 0.8134 13.5658 1.6454 0.7894 -1.6498 -0.0000 0.0000 -0.0000 -3.3767 8.5608 -5.7263 -0.0000 0.0000 -0.0000 -34.1200 -2.7059 2.4932 -37.5899 -13.3575 -21.0406 -9.3892 5.0858 49.9549 15.7468 -3.1901 -1.1404 -0.0000 0.0000 -0.0000 33.0193 4.8757 3.2699 29.2971 8.7691 -18.4443 10.6263 0.2691 19.2383 -12.8326 1.8996 -0.7909 0.0000 0.0000 0.0000 3.7305 7.4716 -11.4164 0.7960 0.0639 62.1781 5.3698 -0.6536 2.1675 0.0000 0.0000 -0.0000
10.6453 38.4319 -15.9065 -161.5000 -72.9398 152.9010 0.0000 0.0000 0.0000 4.3233 -2.6280 -1.5070 -1.5384 -4.4387 24.7696 1.4710 -0.0226 -13.4658 0.0000 -0.0000 0.0000 0.0000 0.0000 0.0000 3.3220 1.3899 13.6968 1.3207 1.4243 -1.4629 -0.0000 0.0000 -0.0000 -3.1821 7.6760 -5.6336 -0.0000 0.0000 -0.0000 -33.8379 -2.6720 2.4620 -37.6669 -12.5855 -20.7540 -9.7865 5.1613 47.2064 16.4262 -3.2124 -1.1946 -0.0000 0.0000 -0.0000 32.7632 4.8311 3.2311 28.7667 9.2758 -18.2951 10.6505 1.5992 18.2505 -12.8405 1.9625 -0.7979 0.0000 0.0000 0.0000 2.1477 8.7604 -13.9352 3.4109 1.4179 57.9356 7.2699 -0.6844 -0.5453 0.0000 0.0000 -0.0000
9.6318 38.5041 -16.2822 -161.8390 -74.8428 153.2830 0.0000 0.0000 0.0000 3.7051 -3.0779 0.6439 -2.1964 -5.4929 24.1981 1.7059 -0.0020 -14.9169 0.0000 -0.0000 0.0000 0.0000 0.0000 0.0000 2.6164 1.9805 13.4977 1.1474 2.0249 -1.3834 -0.0000 0.0000 -0.0000 -3.0288 7.2911 -5.2309 -0.0000 0.0000 -0.0000 -33.7274 -2.6080 2.4297 -37.8452 -11.9144 -20.9853 -9.8691 5.2359 44.4452 16.2470 -3.2257 -1.1830 -0.0000 0.0000 -0.0000 32.5800 4.7976 3.2029 28.3353 9.6330 -17.8773 10.7555 2.8955 17.7493 -12.7910 2.0553 -0.8043 0.0000 0.0000 0.0000 0.3890 10.8006 -15.7983 3.7718 2.1405 51.1321 9.0325 -0.6450 -2.9727 0.0000 0.0000 -0.0000
